<?xml version="1.0" standalone="no"?><!DOCTYPE svg PUBLIC "-//W3C//DTD SVG 1.1//EN" "http://www.w3.org/Graphics/SVG/1.1/DTD/svg11.dtd"><svg t="1712676515386" class="icon" viewBox="0 0 1027 1024" version="1.1" xmlns="http://www.w3.org/2000/svg" p-id="10403" xmlns:xlink="http://www.w3.org/1999/xlink" width="200.5859375" height="200"><path d="M0 716.373333 138.24 553.386667 0 390.4 66.133333 335.36 194.133333 486.826667 322.133333 335.36 388.266667 390.4 250.026667 553.386667 388.266667 716.373333 322.133333 770.986667 194.133333 618.666667 66.133333 770.986667 0 716.373333M1026.133333 725.333333C1026.133333 748.8 1006.933333 768 983.466667 768L855.466667 768C808.533333 768 770.133333 729.6 770.133333 682.666667L770.133333 597.333333C770.133333 550.4 808.533333 512 855.466667 512L940.8 512 940.8 426.666667 770.133333 426.666667 770.133333 341.333333 983.466667 341.333333C1006.933333 341.333333 1026.133333 360.533333 1026.133333 384M940.8 597.333333 855.466667 597.333333 855.466667 682.666667 940.8 682.666667 940.8 597.333333M684.8 725.333333C684.8 748.8 665.6 768 642.133333 768L514.133333 768C467.2 768 428.8 729.6 428.8 682.666667L428.8 426.666667C428.8 379.733333 467.2 341.333333 514.133333 341.333333L599.466667 341.333333 599.466667 213.333333 684.8 213.333333 684.8 725.333333M599.466667 682.666667 599.466667 426.666667 514.133333 426.666667 514.133333 682.666667 599.466667 682.666667Z" p-id="10404" fill="#118AF9"></path></svg>